<mxfile host="app.diagrams.net" modified="2023-02-24T02:08:39.243Z" agent="5.0 (Windows)" etag="aQo3V1h_Klf2iocIyuff" version="18.1.3" type="github">
  <diagram id="C5RBs43oDa-KdzZeNtuy" name="Page-1">
    <mxGraphModel dx="812" dy="627" grid="1" gridSize="10" guides="1" tooltips="1" connect="1" arrows="1" fold="1" page="1" pageScale="1" pageWidth="827" pageHeight="1169" math="0" shadow="0">
      <root>
        <mxCell id="WIyWlLk6GJQsqaUBKTNV-0" />
        <mxCell id="WIyWlLk6GJQsqaUBKTNV-1" parent="WIyWlLk6GJQsqaUBKTNV-0" />
        <mxCell id="QG0IOspcoaKyUOCWfwK5-2" value="" style="edgeStyle=orthogonalEdgeStyle;rounded=0;orthogonalLoop=1;jettySize=auto;html=1;" edge="1" parent="WIyWlLk6GJQsqaUBKTNV-1" source="QG0IOspcoaKyUOCWfwK5-8" target="QG0IOspcoaKyUOCWfwK5-9">
          <mxGeometry relative="1" as="geometry">
            <mxPoint x="120" y="100" as="sourcePoint" />
            <mxPoint x="340" y="140" as="targetPoint" />
          </mxGeometry>
        </mxCell>
        <mxCell id="QG0IOspcoaKyUOCWfwK5-8" value="基于改进的Unet模型的遥感影像语义分割研究" style="rounded=0;whiteSpace=wrap;html=1;" vertex="1" parent="WIyWlLk6GJQsqaUBKTNV-1">
          <mxGeometry x="220" y="50" width="240" height="60" as="geometry" />
        </mxCell>
        <mxCell id="QG0IOspcoaKyUOCWfwK5-11" style="edgeStyle=orthogonalEdgeStyle;rounded=0;orthogonalLoop=1;jettySize=auto;html=1;" edge="1" parent="WIyWlLk6GJQsqaUBKTNV-1" source="QG0IOspcoaKyUOCWfwK5-9">
          <mxGeometry relative="1" as="geometry">
            <mxPoint x="490" y="310" as="targetPoint" />
            <Array as="points">
              <mxPoint x="340" y="240" />
              <mxPoint x="490" y="240" />
            </Array>
          </mxGeometry>
        </mxCell>
        <mxCell id="QG0IOspcoaKyUOCWfwK5-12" style="edgeStyle=orthogonalEdgeStyle;rounded=0;orthogonalLoop=1;jettySize=auto;html=1;entryX=0.5;entryY=0;entryDx=0;entryDy=0;" edge="1" parent="WIyWlLk6GJQsqaUBKTNV-1" source="QG0IOspcoaKyUOCWfwK5-9" target="QG0IOspcoaKyUOCWfwK5-13">
          <mxGeometry relative="1" as="geometry">
            <mxPoint x="190" y="310" as="targetPoint" />
            <Array as="points">
              <mxPoint x="340" y="240" />
              <mxPoint x="190" y="240" />
            </Array>
          </mxGeometry>
        </mxCell>
        <mxCell id="QG0IOspcoaKyUOCWfwK5-9" value="数据收集及预处理" style="rounded=0;whiteSpace=wrap;html=1;" vertex="1" parent="WIyWlLk6GJQsqaUBKTNV-1">
          <mxGeometry x="280" y="150" width="120" height="60" as="geometry" />
        </mxCell>
        <mxCell id="QG0IOspcoaKyUOCWfwK5-25" value="" style="edgeStyle=orthogonalEdgeStyle;rounded=0;orthogonalLoop=1;jettySize=auto;html=1;" edge="1" parent="WIyWlLk6GJQsqaUBKTNV-1" source="QG0IOspcoaKyUOCWfwK5-13" target="QG0IOspcoaKyUOCWfwK5-24">
          <mxGeometry relative="1" as="geometry" />
        </mxCell>
        <mxCell id="QG0IOspcoaKyUOCWfwK5-13" value="最大似然法" style="rounded=0;whiteSpace=wrap;html=1;" vertex="1" parent="WIyWlLk6GJQsqaUBKTNV-1">
          <mxGeometry x="130" y="300" width="120" height="60" as="geometry" />
        </mxCell>
        <mxCell id="QG0IOspcoaKyUOCWfwK5-14" value="" style="rounded=0;whiteSpace=wrap;html=1;" vertex="1" parent="WIyWlLk6GJQsqaUBKTNV-1">
          <mxGeometry x="400" y="310" width="170" height="70" as="geometry" />
        </mxCell>
        <mxCell id="QG0IOspcoaKyUOCWfwK5-26" style="edgeStyle=orthogonalEdgeStyle;rounded=0;orthogonalLoop=1;jettySize=auto;html=1;exitX=0;exitY=0.5;exitDx=0;exitDy=0;" edge="1" parent="WIyWlLk6GJQsqaUBKTNV-1" source="QG0IOspcoaKyUOCWfwK5-15" target="QG0IOspcoaKyUOCWfwK5-24">
          <mxGeometry relative="1" as="geometry" />
        </mxCell>
        <mxCell id="QG0IOspcoaKyUOCWfwK5-27" style="edgeStyle=orthogonalEdgeStyle;rounded=0;orthogonalLoop=1;jettySize=auto;html=1;exitX=0.5;exitY=1;exitDx=0;exitDy=0;entryX=0.5;entryY=0;entryDx=0;entryDy=0;" edge="1" parent="WIyWlLk6GJQsqaUBKTNV-1" source="QG0IOspcoaKyUOCWfwK5-15" target="QG0IOspcoaKyUOCWfwK5-18">
          <mxGeometry relative="1" as="geometry" />
        </mxCell>
        <mxCell id="QG0IOspcoaKyUOCWfwK5-15" value="对比深度学习方法" style="whiteSpace=wrap;html=1;rounded=0;" vertex="1" parent="WIyWlLk6GJQsqaUBKTNV-1">
          <mxGeometry x="294" y="460" width="120" height="60" as="geometry" />
        </mxCell>
        <mxCell id="QG0IOspcoaKyUOCWfwK5-22" value="" style="edgeStyle=orthogonalEdgeStyle;rounded=0;orthogonalLoop=1;jettySize=auto;html=1;startArrow=none;" edge="1" parent="WIyWlLk6GJQsqaUBKTNV-1" source="QG0IOspcoaKyUOCWfwK5-17" target="QG0IOspcoaKyUOCWfwK5-21">
          <mxGeometry relative="1" as="geometry" />
        </mxCell>
        <mxCell id="QG0IOspcoaKyUOCWfwK5-18" value="构建改进的Unet语义分割模型" style="whiteSpace=wrap;html=1;rounded=0;" vertex="1" parent="WIyWlLk6GJQsqaUBKTNV-1">
          <mxGeometry x="280" y="600" width="120" height="60" as="geometry" />
        </mxCell>
        <mxCell id="QG0IOspcoaKyUOCWfwK5-21" value="土地利用分类结果分析" style="whiteSpace=wrap;html=1;rounded=0;" vertex="1" parent="WIyWlLk6GJQsqaUBKTNV-1">
          <mxGeometry x="280" y="830" width="120" height="60" as="geometry" />
        </mxCell>
        <mxCell id="QG0IOspcoaKyUOCWfwK5-17" value="分类结果和精&lt;br&gt;度评价&lt;br&gt;" style="rounded=0;whiteSpace=wrap;html=1;" vertex="1" parent="WIyWlLk6GJQsqaUBKTNV-1">
          <mxGeometry x="280" y="710" width="120" height="75" as="geometry" />
        </mxCell>
        <mxCell id="QG0IOspcoaKyUOCWfwK5-23" value="" style="edgeStyle=orthogonalEdgeStyle;rounded=0;orthogonalLoop=1;jettySize=auto;html=1;endArrow=none;" edge="1" parent="WIyWlLk6GJQsqaUBKTNV-1" source="QG0IOspcoaKyUOCWfwK5-18" target="QG0IOspcoaKyUOCWfwK5-17">
          <mxGeometry relative="1" as="geometry">
            <mxPoint x="340" y="622.5" as="sourcePoint" />
            <mxPoint x="340" y="870" as="targetPoint" />
          </mxGeometry>
        </mxCell>
        <mxCell id="QG0IOspcoaKyUOCWfwK5-24" value="分类结果" style="whiteSpace=wrap;html=1;rounded=0;" vertex="1" parent="WIyWlLk6GJQsqaUBKTNV-1">
          <mxGeometry x="130" y="460" width="120" height="60" as="geometry" />
        </mxCell>
      </root>
    </mxGraphModel>
  </diagram>
</mxfile>
